<svg width="78" height="48" viewBox="0 0 78 48" fill="none" xmlns="http://www.w3.org/2000/svg">
<path d="M24 0H54V6H24V0Z" fill="#CEF934"/>
<path d="M12 42H66V48H12V42Z" fill="#CEF934"/>
<path d="M60 12H72V18H60V12Z" fill="#CEF934"/>
<path d="M6 12H18V18H6V12Z" fill="#CEF934"/>
<path d="M18 6H24V12H18V6Z" fill="#CEF934"/>
<path d="M6 36H12V42H6V36Z" fill="#CEF934"/>
<path d="M54 6H60V12H54V6Z" fill="#CEF934"/>
<path d="M66 36H72V42H66V36Z" fill="#CEF934"/>
<path d="M72 18H78V36H72V18Z" fill="#CEF934"/>
<path d="M0 18H6V36H0V18Z" fill="#CEF934"/>
</svg>
