<svg width="52" height="32" viewBox="0 0 52 32" fill="none" xmlns="http://www.w3.org/2000/svg">
<path d="M14.1818 32V27.4286H9.45455V22.8571H4.72727V18.2857H0V13.7143H4.72727V9.14286H9.45455V4.57143H14.1818V0H23.6364V4.57143H18.9091V9.14286H14.1818V13.7143H9.45455V18.2857H14.1818V22.8571H18.9091V27.4286H23.6364V32H14.1818Z" fill="white"/>
<path d="M42.5455 32V27.4286H37.8182V22.8571H33.0909V18.2857H28.3636V13.7143H33.0909V9.14286H37.8182V4.57143H42.5455V0H52V4.57143H47.2727V9.14286H42.5455V13.7143H37.8182V18.2857H42.5455V22.8571H47.2727V27.4286H52V32H42.5455Z" fill="white"/>
</svg>
