<svg width="52" height="32" viewBox="0 0 52 32" fill="none" xmlns="http://www.w3.org/2000/svg">
<path d="M37.8182 0V4.57143L42.5455 4.57143V9.14286L47.2727 9.14285V13.7143H52V18.2857L47.2727 18.2857V22.8571H42.5455L42.5455 27.4286H37.8182V32H28.3636V27.4286H33.0909L33.0909 22.8571H37.8182V18.2857H42.5455V13.7143H37.8182V9.14286H33.0909V4.57143L28.3636 4.57143V8.95929e-07L37.8182 0Z" fill="white"/>
<path d="M9.45455 2.68779e-06V4.57143L14.1818 4.57143L14.1818 9.14286H18.9091L18.9091 13.7143L23.6364 13.7143V18.2857H18.9091V22.8571H14.1818V27.4286H9.45455L9.45455 32H2.58087e-06L2.21217e-06 27.4286H4.72727L4.72727 22.8571L9.45455 22.8571V18.2857H14.1818L14.1818 13.7143L9.45455 13.7143V9.14286H4.72727L4.72727 4.57143L3.68695e-07 4.57143L0 3.58372e-06L9.45455 2.68779e-06Z" fill="white"/>
</svg>
