<svg width="1440" height="408" viewBox="0 0 1440 408" fill="none" xmlns="http://www.w3.org/2000/svg">
<path fill-rule="evenodd" clip-rule="evenodd" d="M1408 408L1424 408L1424 392L1440 392L1440 376L1440 296L1440 286L1440 0L-3.56685e-05 0.000125889L-1.53864e-05 232L-1.11901e-05 280L-9.79135e-06 296L-6.99382e-06 328L-5.59506e-06 344L16 344L16 360L80 360L80 344L96 344L96 328L160 328L160 344L176 344L176 360L192 360L192 376L208 376L208 392L272 392L272 376L304 376L304 360L320 360L320 344L352 344L352 360L368 360L368 376L400 376L400 360L432 360L432 344L448 344L448 328L464 328L464 312L496 312L496 328L496 344L512 344L544 344L544 328L608 328L608 344L624 344L624 360L640 360L640 376L656 376L656 360L672 360L672 344L720 344L736 344L736 360L752 360L752 344L768 344L800 344L800 328L816 328L816 312L864 312L864 296L880 296L880 328L896 328L896 344L912 344L912 360L960 360L960 344L976 344L976 328L1024 328L1024 344L1040 344L1056 344L1056 360L1072 360L1072 344L1088 344L1136 344L1136 328L1152 328L1152 312L1200 312L1200 328L1216 328L1216 344L1232 344L1232 376L1248 376L1248 392L1264 392L1264 376L1296 376L1296 360L1344 360L1344 344L1376 344L1376 376L1392 376L1392 392L1408 392L1408 408Z" fill="#CEF934"/>
</svg>
