<svg width="1440" height="408" viewBox="0 0 1440 408" fill="none" xmlns="http://www.w3.org/2000/svg">
<path fill-rule="evenodd" clip-rule="evenodd" d="M32 0H16V16H3.56685e-05V32V112V122V408H1440V176V128V112V80V64L1424 64V48H1360V64H1344V80H1280V64H1264V48H1248V32L1232 32V16H1168V32L1136 32V48H1120V64H1088V48L1072 48V32H1040V48H1008V64H992V80L976 80V96H944V80V64H928H896V80H832V64H816V48H800V32H784V48L768 48V64H720H704V48H688V64L672 64L640 64V80L624 80V96H576V112H560V80H544V64H528V48H480V64L464 64V80H416V64H400H384V48H368V64L352 64L304 64V80L288 80V96H240V80H224V64H208V32H192L192 16H176V32L144 32V48H96V64H64V32H48V16H32V0Z" fill="#CEF934"/>
</svg>
